<svg width="96" height="96" xmlns="http://www.w3.org/2000/svg" xmlns:xlink="http://www.w3.org/1999/xlink" xml:space="preserve" overflow="hidden"><defs><clipPath id="clip0"><rect x="518" y="444" width="96" height="96"/></clipPath></defs><g clip-path="url(#clip0)" transform="translate(-518 -444)"><path d="M563.61 512.14C563.61 514.647 561.577 516.68 559.07 516.68 556.563 516.68 554.53 514.647 554.53 512.14 554.53 509.633 556.563 507.6 559.07 507.6 561.577 507.6 563.61 509.633 563.61 512.14Z" fill="#FFFFFF"/><path d="M568 527 568 522.46C567.985 521.753 567.655 521.089 567.1 520.65 565.795 519.644 564.303 518.91 562.71 518.49 561.508 518.121 560.258 517.932 559 517.93 557.744 517.949 556.496 518.138 555.29 518.49 553.715 518.956 552.23 519.687 550.9 520.65 550.345 521.089 550.015 521.753 550 522.46L550 527Z" fill="#FFFFFF"/><path d="M583.47 512.14C583.47 514.647 581.437 516.68 578.93 516.68 576.423 516.68 574.39 514.647 574.39 512.14 574.39 509.633 576.423 507.6 578.93 507.6 581.437 507.6 583.47 509.633 583.47 512.14Z" fill="#FFFFFF"/><path d="M588 527 588 522.46C587.985 521.753 587.655 521.089 587.1 520.65 585.795 519.644 584.303 518.91 582.71 518.49 581.508 518.121 580.258 517.932 579 517.93 577.744 517.949 576.496 518.138 575.29 518.49 573.715 518.956 572.23 519.687 570.9 520.65 570.345 521.089 570.015 521.753 570 522.46L570 527Z" fill="#FFFFFF"/><path d="M603.47 512.14C603.47 514.647 601.437 516.68 598.93 516.68 596.423 516.68 594.39 514.647 594.39 512.14 594.39 509.633 596.423 507.6 598.93 507.6 601.437 507.6 603.47 509.633 603.47 512.14Z" fill="#FFFFFF"/><path d="M608 527 608 522.46C607.985 521.753 607.655 521.089 607.1 520.65 605.795 519.644 604.303 518.91 602.71 518.49 601.508 518.121 600.258 517.932 599 517.93 597.744 517.949 596.496 518.138 595.29 518.49 593.715 518.956 592.23 519.687 590.9 520.65 590.345 521.089 590.015 521.753 590 522.46L590 527Z" fill="#FFFFFF"/><path d="M545.42 470.16C545.42 473.441 542.761 476.1 539.48 476.1 536.199 476.1 533.54 473.441 533.54 470.16 533.54 466.879 536.199 464.22 539.48 464.22 542.761 464.22 545.42 466.879 545.42 470.16Z" fill="#FFFFFF"/><path d="M574.51 467.87C573.922 467.29 572.978 467.29 572.39 467.87L559.47 480.79C558.438 480.499 557.328 480.781 556.56 481.53 556.35 481.74 552.62 487.84 552.62 487.84L551.5 483.07C551.352 482.455 551.045 481.889 550.61 481.43 548.767 479.94 546.646 478.832 544.37 478.17 542.761 477.826 541.125 477.628 539.48 477.58 537.821 477.606 536.173 477.854 534.58 478.32 532.284 478.922 530.154 480.037 528.35 481.58 527.911 482.037 527.604 482.603 527.46 483.22 527.46 483.22 523.15 501.32 523.15 501.62 523.15 503.277 524.493 504.62 526.15 504.62 527.478 504.586 528.625 503.683 528.97 502.4L532.09 489.49 532.09 531 538 531 538 504.29 541 504.29 541 531 546.9 531 546.9 489.3 548 494C548.076 494.325 548.292 494.599 548.59 494.75 549.74 495.633 551.141 496.126 552.59 496.16 553.534 496.292 554.469 495.867 554.99 495.07L561.09 485.07C561.48 484.455 561.626 483.717 561.5 483L574.5 470C575.089 469.414 575.093 468.462 574.51 467.87Z" fill="#FFFFFF"/><path d="M595 454 546 454C543.791 454 542 455.791 542 458L542 461.6C543.529 462.016 544.913 462.847 546 464L546 458 595 458 595 491 560.87 491 558.43 495 595 495C597.209 495 599 493.209 599 491L599 458C599 455.791 597.209 454 595 454Z" fill="#FFFFFF"/></g></svg>