<svg width="96" height="96" xmlns="http://www.w3.org/2000/svg" xmlns:xlink="http://www.w3.org/1999/xlink" xml:space="preserve" overflow="hidden"><defs><clipPath id="clip0"><rect x="434" y="394" width="96" height="96"/></clipPath></defs><g clip-path="url(#clip0)" transform="translate(-434 -394)"><path d="M515.4 413.4C514.6 408.7 510.4 405.1 505.5 405.1 505 405.1 504.4 405.2 503.9 405.2 501.5 402.2 497.8 400.3 493.6 400.3 487.5 400.3 482.4 404.4 480.8 410 475.2 411.1 471 416 471 421.9 471 428.6 476.4 434 483 434L483 434C483 434 512.6 434 513 434 518.8 434 523.1 429.3 523.1 423.5 523.1 418.7 519.8 414.7 515.4 413.4ZM512.4 428 482.8 428C480.5 427.8 478.5 426.5 477.5 424.5 476.6 422.4 476.8 420 478.2 418.1 479.4 416.5 481.2 415.6 483.1 415.6 483.4 415.6 483.8 415.6 484.1 415.7L485.9 416 485.9 414C485.9 410.4 488.3 407.3 491.8 406.5 492.4 406.4 493 406.3 493.6 406.3 493.6 406.3 493.6 406.3 493.6 406.3L493.6 406.3C493.6 406.3 493.6 406.3 493.6 406.3 496.5 406.3 499.1 407.9 500.4 410.5L501 411.7 502.3 411.2C502.9 411 503.6 410.9 504.3 410.9 505.6 410.9 506.8 411.3 507.9 412 509.5 413.2 510.5 415.1 510.5 417.1L510.5 418.7 512.5 418.7C515.1 418.7 517.2 420.8 517.2 423.4 517.1 425.9 515 428 512.4 428Z" fill="#FFFFFF"/><path d="M485.8 438 444.2 438C442.4 438 441 439.4 441 441.2L441 469.8C441 471.6 442.4 473 444.2 473 444.2 473 444.2 473 444.2 473L460 473 460 477 453 477 453 483 477 483 477 477 470 477 470 473 485.8 473C487.6 473 489 471.6 489 469.8L489 469.8 489 441.2C489 439.4 487.6 438 485.8 438ZM483 467 447 467 447 444 483 444 483 467Z" fill="#FFFFFF"/><path d="M503.8 438C504.8 439.3 505.3 441 505.3 442.6 505.3 445.6 503.6 448.3 501 449.7L501 445.6 493.7 453 501 460.2 501 456.1C508.5 454.1 512.9 446.4 510.8 438.9 510.7 438.6 510.6 438.3 510.5 438L503.8 438Z" fill="#FFFFFF"/><path d="M456.9 434C456.1 433 455.4 431 455.4 429.4 455.4 426.4 457.1 423.7 459.7 422.3L459.7 426.4 467 419 459.7 411.8 459.7 415.9C452.2 417.9 447.8 425.6 449.9 433.1 450 433.4 450.1 433.7 450.2 434L456.9 434Z" fill="#FFFFFF"/></g></svg>